<svg xmlns="http://www.w3.org/2000/svg" viewBox="0 0 1200 620" width="1200" height="620" role="img" aria-label="OwnScout architecture: the Go reference records an oracle corpus and TypeScript, Rust and Zig ports replay it byte-for-byte">
  <defs>
    <pattern id="grid" width="40" height="40" patternUnits="userSpaceOnUse">
      <path d="M40 0H0V40" fill="none" stroke="#ffffff" stroke-opacity="0.035" stroke-width="1"/>
    </pattern>
  </defs>
  <rect width="1200" height="620" fill="#0b0b0b"/>
  <rect width="1200" height="620" fill="url(#grid)"/>
  <rect x="0.5" y="0.5" width="1199" height="619" fill="none" stroke="#ffffff" stroke-opacity="0.09"/>

  <g stroke="#ffffff" stroke-opacity="0.3" stroke-width="1" fill="none">
    <path d="M18 18h18M18 18v18"/><path d="M1182 18h-18M1182 18v18"/>
    <path d="M18 602h18M18 602v-18"/><path d="M1182 602h-18M1182 602v-18"/>
  </g>

  <text x="56" y="70" font-family="ui-monospace, SFMono-Regular, Menlo, Consolas, monospace" font-size="20" fill="#f2f2f2" letter-spacing="5.2">ONE CONTRACT, FOUR IMPLEMENTATIONS</text>
  <text x="56" y="98" font-family="ui-monospace, SFMono-Regular, Menlo, Consolas, monospace" font-size="12.5" fill="#8f8f8f" letter-spacing="1.5">the Go reference records the oracle; every port must replay it byte-for-byte</text>
  <line x1="56" y1="116" x2="1144" y2="116" stroke="#ffffff" stroke-opacity="0.12" stroke-width="1"/>

  <rect x="56" y="158" width="224" height="54" fill="#ffffff" fill-opacity="0.02" stroke="#ffffff" stroke-opacity="0.18"/>
  <circle cx="82" cy="185" r="3.5" fill="#f2f2f2"/>
  <text x="108" y="184" font-family="ui-monospace, SFMono-Regular, Menlo, Consolas, monospace" font-size="13" fill="#e6e6e6" letter-spacing="1.7">GO REFERENCE</text>
  <text x="108" y="202" font-family="ui-monospace, SFMono-Regular, Menlo, Consolas, monospace" font-size="10.5" fill="#6a6a6a" letter-spacing="1.1">records the oracle</text>
  <path d="M280 185 C 400 185 430 210 544 210" fill="none" stroke="#ffffff" stroke-opacity="0.22" stroke-width="1"/>
  <rect x="56" y="240" width="224" height="54" fill="#ffffff" fill-opacity="0.02" stroke="#ffffff" stroke-opacity="0.18"/>
  <circle cx="82" cy="267" r="6.5" fill="none" stroke="#f2f2f2" stroke-width="1.2"/>
  <text x="108" y="266" font-family="ui-monospace, SFMono-Regular, Menlo, Consolas, monospace" font-size="13" fill="#e6e6e6" letter-spacing="1.7">TYPESCRIPT</text>
  <text x="108" y="284" font-family="ui-monospace, SFMono-Regular, Menlo, Consolas, monospace" font-size="10.5" fill="#6a6a6a" letter-spacing="1.1">replays it</text>
  <path d="M280 267 C 400 267 430 265 544 265" fill="none" stroke="#ffffff" stroke-opacity="0.22" stroke-width="1"/>
  <rect x="56" y="322" width="224" height="54" fill="#ffffff" fill-opacity="0.02" stroke="#ffffff" stroke-opacity="0.18"/>
  <rect x="76" y="343" width="12" height="12" fill="none" stroke="#f2f2f2" stroke-width="1.2"/>
  <text x="108" y="348" font-family="ui-monospace, SFMono-Regular, Menlo, Consolas, monospace" font-size="13" fill="#e6e6e6" letter-spacing="1.7">RUST</text>
  <text x="108" y="366" font-family="ui-monospace, SFMono-Regular, Menlo, Consolas, monospace" font-size="10.5" fill="#6a6a6a" letter-spacing="1.1">replays it</text>
  <path d="M280 349 C 400 349 430 320 544 320" fill="none" stroke="#ffffff" stroke-opacity="0.22" stroke-width="1"/>
  <rect x="56" y="404" width="224" height="54" fill="#ffffff" fill-opacity="0.02" stroke="#ffffff" stroke-opacity="0.18"/>
  <line x1="74" y1="431" x2="90" y2="431" stroke="#f2f2f2" stroke-width="1.6"/>
  <text x="108" y="430" font-family="ui-monospace, SFMono-Regular, Menlo, Consolas, monospace" font-size="13" fill="#e6e6e6" letter-spacing="1.7">ZIG</text>
  <text x="108" y="448" font-family="ui-monospace, SFMono-Regular, Menlo, Consolas, monospace" font-size="10.5" fill="#6a6a6a" letter-spacing="1.1">replays it</text>
  <path d="M280 431 C 400 431 430 375 544 375" fill="none" stroke="#ffffff" stroke-opacity="0.22" stroke-width="1"/>

  <line x1="548" y1="180" x2="548" y2="440" stroke="#e8e8e8" stroke-opacity="0.5" stroke-width="2"/>
  <line x1="692" y1="180" x2="692" y2="440" stroke="#e8e8e8" stroke-opacity="0.5" stroke-width="2"/>
    <line x1="560.0" y1="265.0" x2="560.0" y2="355.0" stroke="#e8e8e8" stroke-opacity="0.55" stroke-width="3.5"/>
    <line x1="569.5" y1="245.0" x2="569.5" y2="375.0" stroke="#e8e8e8" stroke-opacity="0.55" stroke-width="3.5"/>
    <line x1="579.0" y1="273.0" x2="579.0" y2="347.0" stroke="#e8e8e8" stroke-opacity="0.55" stroke-width="3.5"/>
    <line x1="588.5" y1="226.0" x2="588.5" y2="394.0" stroke="#e8e8e8" stroke-opacity="0.55" stroke-width="3.5"/>
    <line x1="598.0" y1="252.0" x2="598.0" y2="368.0" stroke="#e8e8e8" stroke-opacity="0.55" stroke-width="3.5"/>
    <line x1="607.5" y1="207.0" x2="607.5" y2="413.0" stroke="#e8e8e8" stroke-opacity="0.55" stroke-width="3.5"/>
    <line x1="617.0" y1="234.0" x2="617.0" y2="386.0" stroke="#e8e8e8" stroke-opacity="0.55" stroke-width="3.5"/>
    <line x1="626.5" y1="192.0" x2="626.5" y2="428.0" stroke="#e8e8e8" stroke-opacity="0.55" stroke-width="3.5"/>
    <line x1="636.0" y1="222.0" x2="636.0" y2="398.0" stroke="#e8e8e8" stroke-opacity="0.55" stroke-width="3.5"/>
    <line x1="645.5" y1="204.0" x2="645.5" y2="416.0" stroke="#e8e8e8" stroke-opacity="0.55" stroke-width="3.5"/>
    <line x1="655.0" y1="241.0" x2="655.0" y2="379.0" stroke="#e8e8e8" stroke-opacity="0.55" stroke-width="3.5"/>
    <line x1="664.5" y1="218.0" x2="664.5" y2="402.0" stroke="#e8e8e8" stroke-opacity="0.55" stroke-width="3.5"/>
    <line x1="674.0" y1="258.0" x2="674.0" y2="362.0" stroke="#e8e8e8" stroke-opacity="0.55" stroke-width="3.5"/>
    <line x1="683.5" y1="240.0" x2="683.5" y2="380.0" stroke="#e8e8e8" stroke-opacity="0.55" stroke-width="3.5"/>

  <text x="620" y="134" text-anchor="middle" font-family="ui-monospace, SFMono-Regular, Menlo, Consolas, monospace" font-size="12" fill="#f2f2f2" letter-spacing="3.4">ORACLE</text>
  <text x="620" y="496" text-anchor="middle" font-family="ui-monospace, SFMono-Regular, Menlo, Consolas, monospace" font-size="10.5" fill="#6f6f6f" letter-spacing="1.6">28 BASE + 93 EDGE</text>

  <path d="M696 225 C 790 225 810 223 872 223" fill="none" stroke="#ffffff" stroke-opacity="0.22" stroke-width="1"/>
  <rect x="872" y="196" width="272" height="54" fill="#ffffff" fill-opacity="0.02" stroke="#ffffff" stroke-opacity="0.18"/>
  <path d="M893 214 h9 l5 5 v13 h-14 z" fill="none" stroke="#f2f2f2" stroke-width="1.1"/><path d="M902 214 v5 h5" fill="none" stroke="#f2f2f2" stroke-width="1.1"/>
  <text x="926" y="222" font-family="ui-monospace, SFMono-Regular, Menlo, Consolas, monospace" font-size="13" fill="#e6e6e6" letter-spacing="1.7">CORPUS.JSON</text>
  <text x="926" y="240" font-family="ui-monospace, SFMono-Regular, Menlo, Consolas, monospace" font-size="10.5" fill="#6a6a6a" letter-spacing="1.1">28 base + 93 edge</text>
  <path d="M696 310 C 790 310 810 333 872 333" fill="none" stroke="#ffffff" stroke-opacity="0.22" stroke-width="1"/>
  <rect x="872" y="306" width="272" height="54" fill="#ffffff" fill-opacity="0.02" stroke="#ffffff" stroke-opacity="0.18"/>
  <path d="M892 333 l5 6 l11 -13" fill="none" stroke="#7ee787" stroke-width="1.6"/>
  <text x="926" y="332" font-family="ui-monospace, SFMono-Regular, Menlo, Consolas, monospace" font-size="13" fill="#e6e6e6" letter-spacing="1.7">PARITY OK</text>
  <text x="926" y="350" font-family="ui-monospace, SFMono-Regular, Menlo, Consolas, monospace" font-size="10.5" fill="#6a6a6a" letter-spacing="1.1">stdout + exit codes</text>
  <path d="M696 395 C 790 395 810 443 872 443" fill="none" stroke="#ffffff" stroke-opacity="0.22" stroke-width="1"/>
  <rect x="872" y="416" width="272" height="54" fill="#ffffff" fill-opacity="0.02" stroke="#ffffff" stroke-opacity="0.18"/>
  <g fill="none" stroke="#f2f2f2" stroke-width="1.1"><line x1="900" y1="435" x2="892" y2="450"/><line x1="900" y1="435" x2="908" y2="450"/><line x1="892" y1="450" x2="908" y2="450"/><circle cx="900" cy="435" r="3"/><circle cx="892" cy="450" r="3"/><circle cx="908" cy="450" r="3"/></g>
  <text x="926" y="442" font-family="ui-monospace, SFMono-Regular, Menlo, Consolas, monospace" font-size="13" fill="#e6e6e6" letter-spacing="1.7">CI GREEN</text>
  <text x="926" y="460" font-family="ui-monospace, SFMono-Regular, Menlo, Consolas, monospace" font-size="10.5" fill="#6a6a6a" letter-spacing="1.1">both forges</text>

  <line x1="56" y1="540" x2="1144" y2="540" stroke="#ffffff" stroke-opacity="0.12" stroke-width="1"/>
  <text x="56" y="570" font-family="ui-monospace, SFMono-Regular, Menlo, Consolas, monospace" font-size="11.5" fill="#6a6a6a" letter-spacing="2.1">DIFFERENTIAL FUZZ · CORPUS MUTATION TESTING · PROTECTED-PATH CHECK</text>
  <text x="1144" y="570" text-anchor="end" font-family="ui-monospace, SFMono-Regular, Menlo, Consolas, monospace" font-size="11" fill="#5a5a5a" letter-spacing="1.4">the oracle is validated by deliberately broken builds</text>
</svg>